<svg width="19" height="19" viewBox="0 0 19 19" fill="none" xmlns="http://www.w3.org/2000/svg">
<path d="M9.5 1.1875C4.90957 1.1875 1.1875 4.90957 1.1875 9.5C1.1875 14.0904 4.90957 17.8125 9.5 17.8125C14.0904 17.8125 17.8125 14.0904 17.8125 9.5C17.8125 4.90957 14.0904 1.1875 9.5 1.1875ZM13.4948 7.45342C13.5004 7.54063 13.5004 7.63154 13.5004 7.72061C13.5004 10.4444 11.426 13.582 7.63525 13.582C6.46631 13.582 5.38271 13.2425 4.46982 12.658C4.63682 12.6766 4.79639 12.684 4.96709 12.684C5.93193 12.684 6.81885 12.3574 7.52578 11.8045C6.62031 11.7859 5.85957 11.1922 5.5998 10.3758C5.91709 10.4222 6.20283 10.4222 6.52939 10.3387C6.06316 10.244 5.6441 9.99074 5.34341 9.62206C5.04271 9.25338 4.87893 8.79197 4.87988 8.31621V8.29023C5.15264 8.44424 5.47363 8.53887 5.80947 8.55186C5.52715 8.3637 5.29562 8.10879 5.1354 7.80972C4.97519 7.51066 4.89124 7.17668 4.89102 6.8374C4.89102 6.45332 4.99121 6.10264 5.17119 5.79834C5.68869 6.43539 6.33444 6.95642 7.06649 7.32755C7.79853 7.69869 8.60048 7.91163 9.42022 7.95254C9.12891 6.55166 10.1754 5.41797 11.4334 5.41797C12.0271 5.41797 12.5615 5.6666 12.9382 6.06738C13.4039 5.98018 13.8492 5.80576 14.2463 5.57197C14.0923 6.04883 13.7694 6.45146 13.3408 6.70566C13.7564 6.66113 14.1572 6.54609 14.5283 6.38467C14.2481 6.79658 13.8975 7.16211 13.4948 7.45342V7.45342Z" fill="black"/>
</svg>
