<svg width="26" height="26" viewBox="0 0 26 26" fill="none" xmlns="http://www.w3.org/2000/svg">
<path d="M13.0004 9.61638C11.1367 9.61638 9.6158 11.1373 9.6158 13.0009C9.6158 14.8646 11.1367 16.3855 13.0004 16.3855C14.864 16.3855 16.3849 14.8646 16.3849 13.0009C16.3849 11.1373 14.864 9.61638 13.0004 9.61638ZM23.1515 13.0009C23.1515 11.5994 23.1642 10.2105 23.0855 8.8115C23.0068 7.1865 22.6361 5.74431 21.4478 4.55603C20.257 3.36521 18.8174 2.99704 17.1924 2.91833C15.7908 2.83962 14.4019 2.85232 13.0029 2.85232C11.6013 2.85232 10.2125 2.83962 8.81345 2.91833C7.18845 2.99704 5.74626 3.36775 4.55798 4.55603C3.36716 5.74685 2.999 7.1865 2.92029 8.8115C2.84158 10.2131 2.85427 11.6019 2.85427 13.0009C2.85427 14.4 2.84158 15.7914 2.92029 17.1904C2.999 18.8154 3.3697 20.2576 4.55798 21.4459C5.7488 22.6367 7.18845 23.0049 8.81345 23.0836C10.215 23.1623 11.6039 23.1496 13.0029 23.1496C14.4045 23.1496 15.7933 23.1623 17.1924 23.0836C18.8174 23.0049 20.2596 22.6341 21.4478 21.4459C22.6387 20.255 23.0068 18.8154 23.0855 17.1904C23.1668 15.7914 23.1515 14.4025 23.1515 13.0009V13.0009ZM13.0004 18.2086C10.1185 18.2086 7.79275 15.8828 7.79275 13.0009C7.79275 10.1191 10.1185 7.79333 13.0004 7.79333C15.8822 7.79333 18.208 10.1191 18.208 13.0009C18.208 15.8828 15.8822 18.2086 13.0004 18.2086ZM18.4213 8.79626C17.7484 8.79626 17.2051 8.2529 17.2051 7.58005C17.2051 6.9072 17.7484 6.36384 18.4213 6.36384C19.0941 6.36384 19.6375 6.9072 19.6375 7.58005C19.6377 7.73982 19.6064 7.89806 19.5453 8.04571C19.4843 8.19336 19.3947 8.32751 19.2817 8.44049C19.1687 8.55346 19.0346 8.64304 18.8869 8.70409C18.7393 8.76514 18.581 8.79646 18.4213 8.79626V8.79626Z" fill="black"/>
</svg>
