<svg width="20" height="20" viewBox="0 0 20 20" fill="none" xmlns="http://www.w3.org/2000/svg">
<path d="M11.6034 9.83339L9.35739 8.78539C9.16139 8.69439 9.00039 8.79639 9.00039 9.01339V10.9874C9.00039 11.2044 9.16139 11.3064 9.35739 11.2154L11.6024 10.1674C11.7994 10.0754 11.7994 9.92539 11.6034 9.83339ZM10.0004 0.400391C4.69839 0.400391 0.400391 4.69839 0.400391 10.0004C0.400391 15.3024 4.69839 19.6004 10.0004 19.6004C15.3024 19.6004 19.6004 15.3024 19.6004 10.0004C19.6004 4.69839 15.3024 0.400391 10.0004 0.400391ZM10.0004 13.9004C5.08639 13.9004 5.00039 13.4574 5.00039 10.0004C5.00039 6.54339 5.08639 6.10039 10.0004 6.10039C14.9144 6.10039 15.0004 6.54339 15.0004 10.0004C15.0004 13.4574 14.9144 13.9004 10.0004 13.9004Z" fill="black"/>
</svg>
