<svg width="48" height="48" viewBox="0 0 48 48" fill="none" xmlns="http://www.w3.org/2000/svg">
<path d="M39.6001 27.2001C39.7001 26.5001 39.8001 25.8001 39.8001 25.0001C39.8001 24.2001 39.7001 23.5001 39.6001 22.8001L44.1001 19.6001C44.5001 19.3001 44.7001 18.7001 44.4001 18.2001L40.0001 10.8001C39.7001 10.3001 39.2001 10.1001 38.7001 10.4001L33.7001 12.7001C32.5001 11.8001 31.3001 11.1001 29.9001 10.5001L29.4001 5.0001C29.3001 4.5001 28.9001 4.1001 28.4001 4.1001H19.8001C19.3001 4.1001 18.8001 4.5001 18.8001 5.0001L18.3001 10.5001C16.9001 11.1001 15.6001 11.8001 14.5001 12.7001L9.50011 10.4001C9.00011 10.2001 8.40011 10.4001 8.20011 10.8001L3.90011 18.2001C3.60011 18.7001 3.80011 19.3001 4.20011 19.6001L8.70011 22.8001C8.60011 23.5001 8.50011 24.2001 8.50011 25.0001C8.50011 25.8001 8.60011 26.5001 8.70011 27.2001L4.00011 30.4001C3.60011 30.7001 3.40011 31.3001 3.70011 31.8001L8.00011 39.2001C8.30011 39.7001 8.80011 39.9001 9.30011 39.6001L14.3001 37.3001C15.5001 38.2001 16.7001 38.9001 18.1001 39.5001L18.6001 45.0001C18.7001 45.5001 19.1001 45.9001 19.6001 45.9001H28.2001C28.7001 45.9001 29.2001 45.5001 29.2001 45.0001L29.7001 39.5001C31.1001 38.9001 32.4001 38.2001 33.5001 37.3001L38.5001 39.6001C39.0001 39.8001 39.6001 39.6001 39.8001 39.2001L44.1001 31.8001C44.4001 31.3001 44.2001 30.7001 43.8001 30.4001L39.6001 27.2001V27.2001ZM24.0001 35.0001C18.5001 35.0001 14.0001 30.5001 14.0001 25.0001C14.0001 19.5001 18.5001 15.0001 24.0001 15.0001C29.5001 15.0001 34.0001 19.5001 34.0001 25.0001C34.0001 30.5001 29.5001 35.0001 24.0001 35.0001Z" fill="#607D8B"/>
<path d="M24 13C17.4 13 12 18.4 12 25C12 31.6 17.4 37 24 37C30.6 37 36 31.6 36 25C36 18.4 30.6 13 24 13ZM24 30C21.2 30 19 27.8 19 25C19 22.2 21.2 20 24 20C26.8 20 29 22.2 29 25C29 27.8 26.8 30 24 30Z" fill="#455A64"/>
</svg>
